<mxfile host="app.diagrams.net" agent="Mozilla/5.0 (Windows NT 10.0; Win64; x64) AppleWebKit/537.36 (KHTML, like Gecko) Chrome/134.0.0.0 Safari/537.36" version="26.0.16">
  <diagram name="Página-1" id="UdC3YLeaczNga12u5wOI">
    <mxGraphModel dx="2195" dy="1087" grid="0" gridSize="10" guides="1" tooltips="1" connect="1" arrows="1" fold="1" page="0" pageScale="1" pageWidth="827" pageHeight="1169" math="0" shadow="0">
      <root>
        <mxCell id="0" />
        <mxCell id="1" parent="0" />
        <mxCell id="2H2a-HxvOodgOwESfSV2-5" value="Ninja" style="swimlane;fontStyle=0;childLayout=stackLayout;horizontal=1;startSize=26;fillColor=none;horizontalStack=0;resizeParent=1;resizeParentMax=0;resizeLast=0;collapsible=1;marginBottom=0;whiteSpace=wrap;html=1;" vertex="1" parent="1">
          <mxGeometry x="-533" y="-142" width="140" height="133" as="geometry">
            <mxRectangle x="-533" y="-142" width="62" height="26" as="alternateBounds" />
          </mxGeometry>
        </mxCell>
        <mxCell id="2H2a-HxvOodgOwESfSV2-6" value="+ nome: String" style="text;strokeColor=none;fillColor=none;align=left;verticalAlign=top;spacingLeft=4;spacingRight=4;overflow=hidden;rotatable=0;points=[[0,0.5],[1,0.5]];portConstraint=eastwest;whiteSpace=wrap;html=1;" vertex="1" parent="2H2a-HxvOodgOwESfSV2-5">
          <mxGeometry y="26" width="140" height="26" as="geometry" />
        </mxCell>
        <mxCell id="2H2a-HxvOodgOwESfSV2-7" value="+ idade: byte" style="text;strokeColor=none;fillColor=none;align=left;verticalAlign=top;spacingLeft=4;spacingRight=4;overflow=hidden;rotatable=0;points=[[0,0.5],[1,0.5]];portConstraint=eastwest;whiteSpace=wrap;html=1;" vertex="1" parent="2H2a-HxvOodgOwESfSV2-5">
          <mxGeometry y="52" width="140" height="26" as="geometry" />
        </mxCell>
        <mxCell id="2H2a-HxvOodgOwESfSV2-8" value="+ aldeia: String" style="text;strokeColor=none;fillColor=none;align=left;verticalAlign=top;spacingLeft=4;spacingRight=4;overflow=hidden;rotatable=0;points=[[0,0.5],[1,0.5]];portConstraint=eastwest;whiteSpace=wrap;html=1;" vertex="1" parent="2H2a-HxvOodgOwESfSV2-5">
          <mxGeometry y="78" width="140" height="24" as="geometry" />
        </mxCell>
        <mxCell id="2H2a-HxvOodgOwESfSV2-9" value="+ ranking: String" style="text;strokeColor=none;fillColor=none;align=left;verticalAlign=top;spacingLeft=4;spacingRight=4;overflow=hidden;rotatable=0;points=[[0,0.5],[1,0.5]];portConstraint=eastwest;whiteSpace=wrap;html=1;" vertex="1" parent="2H2a-HxvOodgOwESfSV2-5">
          <mxGeometry y="102" width="140" height="31" as="geometry" />
        </mxCell>
        <mxCell id="2H2a-HxvOodgOwESfSV2-10" value="&lt;div style=&quot;text-align: justify;&quot;&gt;&lt;span style=&quot;background-color: transparent; color: light-dark(rgb(0, 0, 0), rgb(255, 255, 255));&quot;&gt;&lt;font style=&quot;font-size: 24px;&quot;&gt;naruto&lt;/font&gt;&lt;/span&gt;&lt;/div&gt;&lt;div style=&quot;text-align: justify;&quot;&gt;&lt;font style=&quot;font-size: 24px;&quot;&gt;21&lt;/font&gt;&lt;/div&gt;&lt;div style=&quot;text-align: justify;&quot;&gt;&lt;font style=&quot;font-size: 24px;&quot;&gt;Konoha&lt;/font&gt;&lt;/div&gt;&lt;div style=&quot;text-align: justify;&quot;&gt;&lt;font style=&quot;font-size: 24px;&quot;&gt;Kage&lt;/font&gt;&lt;/div&gt;" style="html=1;whiteSpace=wrap;align=center;" vertex="1" parent="1">
          <mxGeometry x="-115" y="-6.5" width="255" height="143" as="geometry" />
        </mxCell>
        <mxCell id="2H2a-HxvOodgOwESfSV2-11" value="" style="endArrow=open;endFill=1;endSize=12;html=1;rounded=0;entryX=0;entryY=0;entryDx=0;entryDy=0;" edge="1" parent="1" target="2H2a-HxvOodgOwESfSV2-10">
          <mxGeometry width="160" relative="1" as="geometry">
            <mxPoint x="-393" y="-129" as="sourcePoint" />
            <mxPoint x="-233" y="-21" as="targetPoint" />
          </mxGeometry>
        </mxCell>
        <mxCell id="2H2a-HxvOodgOwESfSV2-12" value="Classe" style="text;strokeColor=none;align=center;fillColor=none;html=1;verticalAlign=middle;whiteSpace=wrap;rounded=0;" vertex="1" parent="1">
          <mxGeometry x="-495" y="-172" width="60" height="30" as="geometry" />
        </mxCell>
        <mxCell id="2H2a-HxvOodgOwESfSV2-13" value="Objeto" style="text;strokeColor=none;align=center;fillColor=none;html=1;verticalAlign=middle;whiteSpace=wrap;rounded=0;" vertex="1" parent="1">
          <mxGeometry x="-17.5" y="-36.5" width="60" height="30" as="geometry" />
        </mxCell>
        <mxCell id="2H2a-HxvOodgOwESfSV2-226" value="Classes são moldes criados com o objetivo de criar novos objetos a partir dos atributos definidos dentro da mesma. Através da declaração de uma classe, criamos novos &lt;span class=&quot;notion-enable-hover&quot; data-token-index=&quot;1&quot; style=&quot;color:inherit;border-bottom:0.05em solid;word-wrap:break-word;font-style:italic;font-weight:600&quot;&gt;tipos de dados&lt;/span&gt;&lt;span class=&quot;notion-enable-hover&quot; data-token-index=&quot;2&quot; style=&quot;font-style:italic;font-weight:600&quot;&gt;,&lt;/span&gt;&lt;span class=&quot;notion-enable-hover&quot; data-token-index=&quot;3&quot; style=&quot;font-style:italic&quot;&gt; &lt;/span&gt;ou seja, os objetos criados a partir da classe &lt;b&gt;Ninja&amp;nbsp;&lt;/b&gt;são do tipo &lt;span class=&quot;notion-enable-hover&quot; data-token-index=&quot;8&quot; style=&quot;color:inherit;border-bottom:0.05em solid;word-wrap:break-word;font-weight:600&quot;&gt;Ninja&lt;/span&gt;, por exemplo:" style="text;strokeColor=none;align=center;fillColor=none;html=1;verticalAlign=middle;whiteSpace=wrap;rounded=0;" vertex="1" parent="1">
          <mxGeometry x="-656" y="7" width="386" height="88" as="geometry" />
        </mxCell>
        <mxCell id="2H2a-HxvOodgOwESfSV2-227" value="O nosso objeto naruto tem todos os atributos da classe, pois é um tipo de dado novo criado por nós.&amp;nbsp;" style="text;strokeColor=none;align=center;fillColor=none;html=1;verticalAlign=middle;whiteSpace=wrap;rounded=0;" vertex="1" parent="1">
          <mxGeometry x="-115.37" y="136.5" width="255.75" height="88" as="geometry" />
        </mxCell>
        <mxCell id="2H2a-HxvOodgOwESfSV2-232" value="" style="shape=image;imageAspect=0;aspect=fixed;verticalLabelPosition=bottom;verticalAlign=top;image=https://imgs.search.brave.com/DRfXB-YdCPp9AtPgJpgpDu5vX5FkFZNwKTrMQPDjvJg/rs:fit:860:0:0:0/g:ce/aHR0cHM6Ly9pLnJl/ZGQuaXQvYWpzaWZr/MzVucjJiMS5qcGc;" vertex="1" parent="1">
          <mxGeometry x="-28.2" y="-119" width="81.41" height="80" as="geometry" />
        </mxCell>
        <mxCell id="2H2a-HxvOodgOwESfSV2-235" style="edgeStyle=orthogonalEdgeStyle;rounded=0;orthogonalLoop=1;jettySize=auto;html=1;exitX=1;exitY=0.5;exitDx=0;exitDy=0;entryX=0.5;entryY=0;entryDx=0;entryDy=0;" edge="1" parent="1" source="2H2a-HxvOodgOwESfSV2-234" target="2H2a-HxvOodgOwESfSV2-232">
          <mxGeometry relative="1" as="geometry" />
        </mxCell>
        <mxCell id="2H2a-HxvOodgOwESfSV2-234" value="" style="shape=image;imageAspect=0;aspect=fixed;verticalLabelPosition=bottom;verticalAlign=top;image=https://imgs.search.brave.com/mijL9oa5YLhUomwzpYceSEQGijpADCBGCskuAyuiIyc/rs:fit:860:0:0:0/g:ce/aHR0cHM6Ly9pLnBp/bmltZy5jb20vb3Jp/Z2luYWxzLzEzLzdj/LzBiLzEzN2MwYmQy/NWNiMjE4ZjQzOTQz/ZDNiNDQ2NzJjYTk5/LmpwZw;" vertex="1" parent="1">
          <mxGeometry x="-513.28" y="-277" width="100.56" height="76" as="geometry" />
        </mxCell>
      </root>
    </mxGraphModel>
  </diagram>
</mxfile>
